G04 #@! TF.GenerationSoftware,KiCad,Pcbnew,5.1.5+dfsg1-2build2*
G04 #@! TF.CreationDate,2021-02-23T10:15:37+01:00*
G04 #@! TF.ProjectId,Kugel-100mm_Adafruit-3094,4b756765-6c2d-4313-9030-6d6d5f416461,rev?*
G04 #@! TF.SameCoordinates,Original*
G04 #@! TF.FileFunction,Copper,L2,Bot*
G04 #@! TF.FilePolarity,Positive*
%FSLAX46Y46*%
G04 Gerber Fmt 4.6, Leading zero omitted, Abs format (unit mm)*
G04 Created by KiCad (PCBNEW 5.1.5+dfsg1-2build2) date 2021-02-23 10:15:37*
%MOMM*%
%LPD*%
G04 APERTURE LIST*
%ADD10C,0.254000*%
G04 APERTURE END LIST*
D10*
G36*
X112713729Y-138002041D02*
G01*
X109504233Y-140857697D01*
X107591862Y-138747094D01*
X110714057Y-135842509D01*
X112713729Y-138002041D01*
G37*
X112713729Y-138002041D02*
X109504233Y-140857697D01*
X107591862Y-138747094D01*
X110714057Y-135842509D01*
X112713729Y-138002041D01*
G36*
X112489161Y-158237497D02*
G01*
X110078543Y-159754310D01*
X107760250Y-156175174D01*
X110234212Y-154580879D01*
X112489161Y-158237497D01*
G37*
X112489161Y-158237497D02*
X110078543Y-159754310D01*
X107760250Y-156175174D01*
X110234212Y-154580879D01*
X112489161Y-158237497D01*
G36*
X86343729Y-155412041D02*
G01*
X83134233Y-158267697D01*
X81221862Y-156157094D01*
X84344057Y-153252509D01*
X86343729Y-155412041D01*
G37*
X86343729Y-155412041D02*
X83134233Y-158267697D01*
X81221862Y-156157094D01*
X84344057Y-153252509D01*
X86343729Y-155412041D01*
G36*
X106971961Y-122160092D02*
G01*
X104125898Y-122268382D01*
X103907765Y-118009611D01*
X106847426Y-117865893D01*
X106971961Y-122160092D01*
G37*
X106971961Y-122160092D02*
X104125898Y-122268382D01*
X103907765Y-118009611D01*
X106847426Y-117865893D01*
X106971961Y-122160092D01*
G36*
X129848318Y-125768306D02*
G01*
X127809069Y-129549457D01*
X125290160Y-128220208D01*
X127230637Y-124422939D01*
X129848318Y-125768306D01*
G37*
X129848318Y-125768306D02*
X127809069Y-129549457D01*
X125290160Y-128220208D01*
X127230637Y-124422939D01*
X129848318Y-125768306D01*
G36*
X140390141Y-147764335D02*
G01*
X140021207Y-150684292D01*
X135770625Y-150061256D01*
X136158193Y-147239625D01*
X140390141Y-147764335D01*
G37*
X140390141Y-147764335D02*
X140021207Y-150684292D01*
X135770625Y-150061256D01*
X136158193Y-147239625D01*
X140390141Y-147764335D01*
G36*
X129726557Y-166553844D02*
G01*
X126942537Y-167154701D01*
X125988190Y-162998510D01*
X128858235Y-162346509D01*
X129726557Y-166553844D01*
G37*
X129726557Y-166553844D02*
X126942537Y-167154701D01*
X125988190Y-162998510D01*
X128858235Y-162346509D01*
X129726557Y-166553844D01*
G36*
X118614105Y-180057426D02*
G01*
X114319909Y-180181961D01*
X114211618Y-177335897D01*
X118470389Y-177117765D01*
X118614105Y-180057426D01*
G37*
X118614105Y-180057426D02*
X114319909Y-180181961D01*
X114211618Y-177335897D01*
X118470389Y-177117765D01*
X118614105Y-180057426D01*
G36*
X106405532Y-186684506D02*
G01*
X105053853Y-190762325D01*
X102342391Y-189890674D01*
X103593999Y-185814134D01*
X106405532Y-186684506D01*
G37*
X106405532Y-186684506D02*
X105053853Y-190762325D01*
X102342391Y-189890674D01*
X103593999Y-185814134D01*
X106405532Y-186684506D01*
G36*
X83043729Y-175452041D02*
G01*
X79834233Y-178307697D01*
X77921862Y-176197094D01*
X81044057Y-173292509D01*
X83043729Y-175452041D01*
G37*
X83043729Y-175452041D02*
X79834233Y-178307697D01*
X77921862Y-176197094D01*
X81044057Y-173292509D01*
X83043729Y-175452041D01*
G36*
X66852723Y-157319786D02*
G01*
X62860092Y-158905512D01*
X61784920Y-156268125D01*
X65712249Y-154606562D01*
X66852723Y-157319786D01*
G37*
X66852723Y-157319786D02*
X62860092Y-158905512D01*
X61784920Y-156268125D01*
X65712249Y-154606562D01*
X66852723Y-157319786D01*
G36*
X66457061Y-133700637D02*
G01*
X65111693Y-136318317D01*
X61330544Y-134279069D01*
X62659792Y-131760159D01*
X66457061Y-133700637D01*
G37*
X66457061Y-133700637D02*
X65111693Y-136318317D01*
X61330544Y-134279069D01*
X62659792Y-131760159D01*
X66457061Y-133700637D01*
G36*
X77976557Y-119263844D02*
G01*
X75192537Y-119864702D01*
X74238190Y-115708510D01*
X77108235Y-115056509D01*
X77976557Y-119263844D01*
G37*
X77976557Y-119263844D02*
X75192537Y-119864702D01*
X74238190Y-115708510D01*
X77108235Y-115056509D01*
X77976557Y-119263844D01*
G36*
X89585866Y-104863999D02*
G01*
X88715493Y-107675531D01*
X84637676Y-106323853D01*
X85509326Y-103612390D01*
X89585866Y-104863999D01*
G37*
X89585866Y-104863999D02*
X88715493Y-107675531D01*
X84637676Y-106323853D01*
X85509326Y-103612390D01*
X89585866Y-104863999D01*
G36*
X100764105Y-103407426D02*
G01*
X96469909Y-103531961D01*
X96361618Y-100685897D01*
X100620389Y-100467765D01*
X100764105Y-103407426D01*
G37*
X100764105Y-103407426D02*
X96469909Y-103531961D01*
X96361618Y-100685897D01*
X100620389Y-100467765D01*
X100764105Y-103407426D01*
G36*
X119823729Y-109162041D02*
G01*
X116614233Y-112017697D01*
X114701862Y-109907094D01*
X117824057Y-107002509D01*
X119823729Y-109162041D01*
G37*
X119823729Y-109162041D02*
X116614233Y-112017697D01*
X114701862Y-109907094D01*
X117824057Y-107002509D01*
X119823729Y-109162041D01*
G36*
X125515866Y-103903999D02*
G01*
X124645493Y-106715531D01*
X120567676Y-105363853D01*
X121439326Y-102652390D01*
X125515866Y-103903999D01*
G37*
X125515866Y-103903999D02*
X124645493Y-106715531D01*
X120567676Y-105363853D01*
X121439326Y-102652390D01*
X125515866Y-103903999D01*
G36*
X142893729Y-108452041D02*
G01*
X139684233Y-111307697D01*
X137771862Y-109197094D01*
X140894057Y-106292509D01*
X142893729Y-108452041D01*
G37*
X142893729Y-108452041D02*
X139684233Y-111307697D01*
X137771862Y-109197094D01*
X140894057Y-106292509D01*
X142893729Y-108452041D01*
G36*
X154353489Y-135068236D02*
G01*
X150146157Y-135936557D01*
X149545298Y-133152536D01*
X153701489Y-132198190D01*
X154353489Y-135068236D01*
G37*
X154353489Y-135068236D02*
X150146157Y-135936557D01*
X149545298Y-133152536D01*
X153701489Y-132198190D01*
X154353489Y-135068236D01*
G36*
X158020141Y-154514335D02*
G01*
X157651207Y-157434292D01*
X153400625Y-156811256D01*
X153788193Y-153989625D01*
X158020141Y-154514335D01*
G37*
X158020141Y-154514335D02*
X157651207Y-157434292D01*
X153400625Y-156811256D01*
X153788193Y-153989625D01*
X158020141Y-154514335D01*
G36*
X149279750Y-174244826D02*
G01*
X146805789Y-175839119D01*
X144550840Y-172182505D01*
X146961457Y-170665688D01*
X149279750Y-174244826D01*
G37*
X149279750Y-174244826D02*
X146805789Y-175839119D01*
X144550840Y-172182505D01*
X146961457Y-170665688D01*
X149279750Y-174244826D01*
G36*
X135587490Y-189244057D02*
G01*
X133427959Y-191243728D01*
X130572304Y-188034233D01*
X132682906Y-186121861D01*
X135587490Y-189244057D01*
G37*
X135587490Y-189244057D02*
X133427959Y-191243728D01*
X130572304Y-188034233D01*
X132682906Y-186121861D01*
X135587490Y-189244057D01*
G36*
X88735532Y-190174506D02*
G01*
X87383853Y-194252325D01*
X84672391Y-193380674D01*
X85923999Y-189304134D01*
X88735532Y-190174506D01*
G37*
X88735532Y-190174506D02*
X87383853Y-194252325D01*
X84672391Y-193380674D01*
X85923999Y-189304134D01*
X88735532Y-190174506D01*
G36*
X66683729Y-177672041D02*
G01*
X63474233Y-180527697D01*
X61561862Y-178417094D01*
X64684057Y-175512509D01*
X66683729Y-177672041D01*
G37*
X66683729Y-177672041D02*
X63474233Y-180527697D01*
X61561862Y-178417094D01*
X64684057Y-175512509D01*
X66683729Y-177672041D01*
G36*
X157473555Y-149003000D02*
G01*
X152286629Y-149003000D01*
X152267371Y-142407000D01*
X157502442Y-142407000D01*
X157473555Y-149003000D01*
G37*
X157473555Y-149003000D02*
X152286629Y-149003000D01*
X152267371Y-142407000D01*
X157502442Y-142407000D01*
X157473555Y-149003000D01*
G36*
X78983555Y-149663000D02*
G01*
X73796629Y-149663000D01*
X73777371Y-143067000D01*
X79012442Y-143067000D01*
X78983555Y-149663000D01*
G37*
X78983555Y-149663000D02*
X73796629Y-149663000D01*
X73777371Y-143067000D01*
X79012442Y-143067000D01*
X78983555Y-149663000D01*
G36*
X62363555Y-150673000D02*
G01*
X57176629Y-150673000D01*
X57157371Y-144077000D01*
X62392442Y-144077000D01*
X62363555Y-150673000D01*
G37*
X62363555Y-150673000D02*
X57176629Y-150673000D01*
X57157371Y-144077000D01*
X62392442Y-144077000D01*
X62363555Y-150673000D01*
G36*
X109953000Y-100246445D02*
G01*
X109953000Y-105433371D01*
X103357000Y-105452630D01*
X103357001Y-100217558D01*
X109953000Y-100246445D01*
G37*
X109953000Y-100246445D02*
X109953000Y-105433371D01*
X103357000Y-105452630D01*
X103357001Y-100217558D01*
X109953000Y-100246445D01*
G36*
X117591059Y-191014397D02*
G01*
X111098612Y-192178747D01*
X110189552Y-187023208D01*
X116690359Y-185906273D01*
X117591059Y-191014397D01*
G37*
X117591059Y-191014397D02*
X111098612Y-192178747D01*
X110189552Y-187023208D01*
X116690359Y-185906273D01*
X117591059Y-191014397D01*
G36*
X98470572Y-163114177D02*
G01*
X96696539Y-167988292D01*
X90491740Y-165750425D01*
X92282240Y-160831067D01*
X98470572Y-163114177D01*
G37*
X98470572Y-163114177D02*
X96696539Y-167988292D01*
X90491740Y-165750425D01*
X92282240Y-160831067D01*
X98470572Y-163114177D01*
G36*
X119816792Y-122063326D02*
G01*
X117223330Y-126555334D01*
X111501397Y-123274013D01*
X114118932Y-118740308D01*
X119816792Y-122063326D01*
G37*
X119816792Y-122063326D02*
X117223330Y-126555334D01*
X111501397Y-123274013D01*
X114118932Y-118740308D01*
X119816792Y-122063326D01*
G36*
X142208950Y-136890746D02*
G01*
X137334836Y-138664779D01*
X135060773Y-132473153D01*
X139980131Y-130682653D01*
X142208950Y-136890746D01*
G37*
X142208950Y-136890746D02*
X137334836Y-138664779D01*
X135060773Y-132473153D01*
X139980131Y-130682653D01*
X142208950Y-136890746D01*
G36*
X141158933Y-157042239D02*
G01*
X138875823Y-163230572D01*
X134001708Y-161456539D01*
X136239576Y-155251740D01*
X141158933Y-157042239D01*
G37*
X141158933Y-157042239D02*
X138875823Y-163230572D01*
X134001708Y-161456539D01*
X136239576Y-155251740D01*
X141158933Y-157042239D01*
G36*
X122133510Y-170096691D02*
G01*
X116406763Y-173369675D01*
X113813300Y-168877666D01*
X119515975Y-165562988D01*
X122133510Y-170096691D01*
G37*
X122133510Y-170096691D02*
X116406763Y-173369675D01*
X113813300Y-168877666D01*
X119515975Y-165562988D01*
X122133510Y-170096691D01*
G36*
X99000572Y-184634177D02*
G01*
X97226539Y-189508292D01*
X91021740Y-187270425D01*
X92812239Y-182351069D01*
X99000572Y-184634177D01*
G37*
X99000572Y-184634177D02*
X97226539Y-189508292D01*
X91021740Y-187270425D01*
X92812239Y-182351069D01*
X99000572Y-184634177D01*
G36*
X75699675Y-170293237D02*
G01*
X71207666Y-172886700D01*
X67892987Y-167184025D01*
X72426692Y-164566490D01*
X75699675Y-170293237D01*
G37*
X75699675Y-170293237D02*
X71207666Y-172886700D01*
X67892987Y-167184025D01*
X72426692Y-164566490D01*
X75699675Y-170293237D01*
G36*
X77138579Y-186930549D02*
G01*
X73804489Y-190903963D01*
X68739280Y-186678891D01*
X72104319Y-182668594D01*
X77138579Y-186930549D01*
G37*
X77138579Y-186930549D02*
X73804489Y-190903963D01*
X68739280Y-186678891D01*
X72104319Y-182668594D01*
X77138579Y-186930549D01*
G36*
X60249675Y-172623237D02*
G01*
X55757666Y-175216700D01*
X52442987Y-169514025D01*
X56976692Y-166896490D01*
X60249675Y-172623237D01*
G37*
X60249675Y-172623237D02*
X55757666Y-175216700D01*
X52442987Y-169514025D01*
X56976692Y-166896490D01*
X60249675Y-172623237D01*
G36*
X72731406Y-120864318D02*
G01*
X68469451Y-125898579D01*
X64496037Y-122564489D01*
X68721109Y-117499280D01*
X72731406Y-120864318D01*
G37*
X72731406Y-120864318D02*
X68469451Y-125898579D01*
X64496037Y-122564489D01*
X68721109Y-117499280D01*
X72731406Y-120864318D01*
G36*
X88694552Y-113448484D02*
G01*
X83623155Y-117666183D01*
X80289064Y-113692768D01*
X85329514Y-109438188D01*
X88694552Y-113448484D01*
G37*
X88694552Y-113448484D02*
X83623155Y-117666183D01*
X80289064Y-113692768D01*
X85329514Y-109438188D01*
X88694552Y-113448484D01*
G36*
X94223952Y-98948080D02*
G01*
X88015859Y-101176900D01*
X86241826Y-96302786D01*
X92433453Y-94028725D01*
X94223952Y-98948080D01*
G37*
X94223952Y-98948080D02*
X88015859Y-101176900D01*
X86241826Y-96302786D01*
X92433453Y-94028725D01*
X94223952Y-98948080D01*
G36*
X132889692Y-111308931D02*
G01*
X129566674Y-117006792D01*
X125074667Y-114413330D01*
X128355988Y-108691397D01*
X132889692Y-111308931D01*
G37*
X132889692Y-111308931D02*
X129566674Y-117006792D01*
X125074667Y-114413330D01*
X128355988Y-108691397D01*
X132889692Y-111308931D01*
G36*
X135666792Y-101946005D02*
G01*
X133073330Y-106438013D01*
X127351397Y-103156692D01*
X129968932Y-98622987D01*
X135666792Y-101946005D01*
G37*
X135666792Y-101946005D02*
X133073330Y-106438013D01*
X127351397Y-103156692D01*
X129968932Y-98622987D01*
X135666792Y-101946005D01*
G36*
X151251618Y-117390677D02*
G01*
X147278203Y-120724768D01*
X143023623Y-115684319D01*
X147033920Y-112319280D01*
X151251618Y-117390677D01*
G37*
X151251618Y-117390677D02*
X147278203Y-120724768D01*
X143023623Y-115684319D01*
X147033920Y-112319280D01*
X151251618Y-117390677D01*
G36*
X158768932Y-163462239D02*
G01*
X156485823Y-169650572D01*
X151611708Y-167876539D01*
X153849576Y-161671740D01*
X158768932Y-163462239D01*
G37*
X158768932Y-163462239D02*
X156485823Y-169650572D01*
X151611708Y-167876539D01*
X153849576Y-161671740D01*
X158768932Y-163462239D01*
G36*
X143134552Y-180358484D02*
G01*
X138063155Y-184576183D01*
X134729064Y-180602768D01*
X139769514Y-176348188D01*
X143134552Y-180358484D01*
G37*
X143134552Y-180358484D02*
X138063155Y-184576183D01*
X134729064Y-180602768D01*
X139769514Y-176348188D01*
X143134552Y-180358484D01*
G36*
X124240449Y-202196791D02*
G01*
X117739641Y-203313727D01*
X116838941Y-198205603D01*
X123331389Y-197041255D01*
X124240449Y-202196791D01*
G37*
X124240449Y-202196791D02*
X117739641Y-203313727D01*
X116838941Y-198205603D01*
X123331389Y-197041255D01*
X124240449Y-202196791D01*
M02*
