%FSLAX45Y45*%
G04 Gerber Fmt 4.5, Leading zero omitted, Abs format (unit mm)*
G04 Created by KiCad (PCBNEW 5.1.5+dfsg1-2build2) date 2021-03-12 16:21:49*
%MOMM*%
%LPD*%
G04 APERTURE LIST*
%TA.AperFunction,Profile*%
%ADD10C,0.050000*%
%TD*%
%ADD11C,0.200000*%
%ADD12C,0.300000*%
G04 APERTURE END LIST*
D10*
X16252000Y-14899000D02*
G75*
G03X16252000Y-14899000I-5751000J0D01*
G01*
D11*
D12*
X5033928Y-21118215D02*
X5033928Y-20818215D01*
X5105357Y-20818215D01*
X5148214Y-20832500D01*
X5176785Y-20861072D01*
X5191071Y-20889643D01*
X5205357Y-20946786D01*
X5205357Y-20989643D01*
X5191071Y-21046786D01*
X5176785Y-21075358D01*
X5148214Y-21103929D01*
X5105357Y-21118215D01*
X5033928Y-21118215D01*
X5333928Y-21118215D02*
X5333928Y-20918215D01*
X5333928Y-20975358D02*
X5348214Y-20946786D01*
X5362500Y-20932500D01*
X5391071Y-20918215D01*
X5419642Y-20918215D01*
X5519642Y-21118215D02*
X5519642Y-20918215D01*
X5519642Y-20818215D02*
X5505357Y-20832500D01*
X5519642Y-20846786D01*
X5533928Y-20832500D01*
X5519642Y-20818215D01*
X5519642Y-20846786D01*
X5705357Y-21118215D02*
X5676785Y-21103929D01*
X5662500Y-21075358D01*
X5662500Y-20818215D01*
X5862500Y-21118215D02*
X5833928Y-21103929D01*
X5819642Y-21075358D01*
X5819642Y-20818215D01*
X6205357Y-21118215D02*
X6205357Y-20818215D01*
X6305357Y-21032500D01*
X6405357Y-20818215D01*
X6405357Y-21118215D01*
X6676785Y-21118215D02*
X6676785Y-20961072D01*
X6662500Y-20932500D01*
X6633928Y-20918215D01*
X6576785Y-20918215D01*
X6548214Y-20932500D01*
X6676785Y-21103929D02*
X6648214Y-21118215D01*
X6576785Y-21118215D01*
X6548214Y-21103929D01*
X6533928Y-21075358D01*
X6533928Y-21046786D01*
X6548214Y-21018215D01*
X6576785Y-21003929D01*
X6648214Y-21003929D01*
X6676785Y-20989643D01*
X6819642Y-20918215D02*
X6819642Y-21218215D01*
X6819642Y-20932500D02*
X6848214Y-20918215D01*
X6905357Y-20918215D01*
X6933928Y-20932500D01*
X6948214Y-20946786D01*
X6962500Y-20975358D01*
X6962500Y-21061072D01*
X6948214Y-21089643D01*
X6933928Y-21103929D01*
X6905357Y-21118215D01*
X6848214Y-21118215D01*
X6819642Y-21103929D01*
X7091071Y-21089643D02*
X7105357Y-21103929D01*
X7091071Y-21118215D01*
X7076785Y-21103929D01*
X7091071Y-21089643D01*
X7091071Y-21118215D01*
X7091071Y-20932500D02*
X7105357Y-20946786D01*
X7091071Y-20961072D01*
X7076785Y-20946786D01*
X7091071Y-20932500D01*
X7091071Y-20961072D01*
M02*
