%FSLAX45Y45*%
G04 Gerber Fmt 4.5, Leading zero omitted, Abs format (unit mm)*
G04 Created by KiCad (PCBNEW 5.1.5+dfsg1-2build2) date 2021-03-04 14:10:16*
%MOMM*%
%LPD*%
G04 APERTURE LIST*
%TA.AperFunction,Profile*%
%ADD10C,0.050000*%
%TD*%
%ADD11C,0.200000*%
%ADD12C,0.300000*%
G04 APERTURE END LIST*
D10*
X16252000Y-14899000D02*
G75*
G03X16252000Y-14899000I-5751000J0D01*
G01*
D11*
X5918600Y-13741800D02*
X5968600Y-13791800D01*
X5968600Y-13741800D02*
X5918600Y-13791800D01*
X5954000Y-17817000D02*
X6004000Y-17867000D01*
X6004000Y-17817000D02*
X5954000Y-17867000D01*
X6058945Y-14049503D02*
X6108945Y-14099503D01*
X6108945Y-14049503D02*
X6058945Y-14099503D01*
X6302738Y-15289184D02*
X6352738Y-15339184D01*
X6352738Y-15289184D02*
X6302738Y-15339184D01*
X6609000Y-12965000D02*
X6659000Y-13015000D01*
X6659000Y-12965000D02*
X6609000Y-13015000D01*
X6695875Y-16353825D02*
X6745875Y-16403825D01*
X6745875Y-16353825D02*
X6695875Y-16403825D01*
X6957000Y-18064000D02*
X7007000Y-18114000D01*
X7007000Y-18064000D02*
X6957000Y-18114000D01*
X7214951Y-14402949D02*
X7264951Y-14452949D01*
X7264951Y-14402949D02*
X7214951Y-14452949D01*
X7396589Y-11328800D02*
X7446589Y-11378800D01*
X7446589Y-11328800D02*
X7396589Y-11378800D01*
X7482514Y-13925492D02*
X7532514Y-13975492D01*
X7532514Y-13925492D02*
X7482514Y-13975492D01*
X7753341Y-17232659D02*
X7803341Y-17282659D01*
X7803341Y-17232659D02*
X7753341Y-17282659D01*
X7873000Y-19317000D02*
X7923000Y-19367000D01*
X7923000Y-19317000D02*
X7873000Y-19367000D01*
X7899800Y-11836800D02*
X7949800Y-11886800D01*
X7949800Y-11836800D02*
X7899800Y-11886800D01*
X8118000Y-18594000D02*
X8168000Y-18644000D01*
X8168000Y-18594000D02*
X8118000Y-18644000D01*
X8129285Y-15241450D02*
X8179285Y-15291450D01*
X8179285Y-15241450D02*
X8129285Y-15291450D01*
X8387538Y-18321403D02*
X8437538Y-18371403D01*
X8437538Y-18321403D02*
X8387538Y-18371403D01*
X8840620Y-18459055D02*
X8890620Y-18509055D01*
X8890620Y-18459055D02*
X8840620Y-18509055D01*
X8888176Y-16180783D02*
X8938176Y-16230783D01*
X8938176Y-16180783D02*
X8888176Y-16230783D01*
X8938000Y-10872000D02*
X8988000Y-10922000D01*
X8988000Y-10872000D02*
X8938000Y-10922000D01*
X9114000Y-10482000D02*
X9164000Y-10532000D01*
X9164000Y-10482000D02*
X9114000Y-10532000D01*
X9312000Y-13723000D02*
X9362000Y-13773000D01*
X9362000Y-13723000D02*
X9312000Y-13773000D01*
X9323000Y-10417000D02*
X9373000Y-10467000D01*
X9373000Y-10417000D02*
X9323000Y-10467000D01*
X9522000Y-14538000D02*
X9572000Y-14588000D01*
X9572000Y-14538000D02*
X9522000Y-14588000D01*
X9881000Y-10693800D02*
X9931000Y-10743800D01*
X9931000Y-10693800D02*
X9881000Y-10743800D01*
X9883028Y-12781047D02*
X9933028Y-12831047D01*
X9933028Y-12781047D02*
X9883028Y-12831047D01*
X9927000Y-10152000D02*
X9977000Y-10202000D01*
X9977000Y-10152000D02*
X9927000Y-10202000D01*
X10120000Y-16035000D02*
X10170000Y-16085000D01*
X10170000Y-16035000D02*
X10120000Y-16085000D01*
X10130138Y-18674862D02*
X10180138Y-18724862D01*
X10180138Y-18674862D02*
X10130138Y-18724862D01*
X10210581Y-15190419D02*
X10260581Y-15240419D01*
X10260581Y-15190419D02*
X10210581Y-15240419D01*
X10212348Y-14891348D02*
X10262348Y-14941348D01*
X10262348Y-14891348D02*
X10212348Y-14941348D01*
X10222000Y-14539000D02*
X10272000Y-14589000D01*
X10272000Y-14539000D02*
X10222000Y-14589000D01*
X10734816Y-18948577D02*
X10784816Y-18998577D01*
X10784816Y-18948577D02*
X10734816Y-18998577D01*
X10945087Y-12135790D02*
X10995087Y-12185790D01*
X10995087Y-12135790D02*
X10945087Y-12185790D01*
X11125600Y-10871600D02*
X11175600Y-10921600D01*
X11175600Y-10871600D02*
X11125600Y-10921600D01*
X11252600Y-10109600D02*
X11302600Y-10159600D01*
X11302600Y-10109600D02*
X11252600Y-10159600D01*
X11352124Y-14125876D02*
X11402124Y-14175876D01*
X11402124Y-14125876D02*
X11352124Y-14175876D01*
X11577449Y-17565166D02*
X11627449Y-17615166D01*
X11627449Y-17565166D02*
X11577449Y-17615166D01*
X11663776Y-18183224D02*
X11713776Y-18233224D01*
X11713776Y-18183224D02*
X11663776Y-18233224D01*
X11814524Y-15176133D02*
X11864524Y-15226133D01*
X11864524Y-15176133D02*
X11814524Y-15226133D01*
X12036101Y-11431723D02*
X12086101Y-11481723D01*
X12086101Y-11431723D02*
X12036101Y-11481723D01*
X12055977Y-12032087D02*
X12105977Y-12082087D01*
X12105977Y-12032087D02*
X12055977Y-12082087D01*
X12279933Y-12401067D02*
X12329933Y-12451067D01*
X12329933Y-12401067D02*
X12279933Y-12451067D01*
X12312410Y-16486926D02*
X12362410Y-16536926D01*
X12362410Y-16486926D02*
X12312410Y-16536926D01*
X12421000Y-10084200D02*
X12471000Y-10134200D01*
X12471000Y-10084200D02*
X12421000Y-10134200D01*
X12421000Y-10871600D02*
X12471000Y-10921600D01*
X12471000Y-10871600D02*
X12421000Y-10921600D01*
X12649600Y-11963800D02*
X12699600Y-12013800D01*
X12699600Y-11963800D02*
X12649600Y-12013800D01*
X13094000Y-18151000D02*
X13144000Y-18201000D01*
X13144000Y-18151000D02*
X13094000Y-18201000D01*
X13105000Y-19662000D02*
X13155000Y-19712000D01*
X13155000Y-19662000D02*
X13105000Y-19712000D01*
X13158000Y-13319000D02*
X13208000Y-13369000D01*
X13208000Y-13319000D02*
X13158000Y-13369000D01*
X13238626Y-16353110D02*
X13288626Y-16403110D01*
X13288626Y-16353110D02*
X13238626Y-16403110D01*
X13284472Y-13027537D02*
X13334472Y-13077537D01*
X13334472Y-13027537D02*
X13284472Y-13077537D01*
X13535822Y-16601136D02*
X13585822Y-16651136D01*
X13585822Y-16601136D02*
X13535822Y-16651136D01*
X13677314Y-15205207D02*
X13727314Y-15255207D01*
X13727314Y-15205207D02*
X13677314Y-15255207D01*
X13799377Y-12729377D02*
X13849377Y-12779377D01*
X13849377Y-12729377D02*
X13799377Y-12779377D01*
X13918772Y-14146228D02*
X13968772Y-14196228D01*
X13968772Y-14146228D02*
X13918772Y-14196228D01*
X13963000Y-17287000D02*
X14013000Y-17337000D01*
X14013000Y-17287000D02*
X13963000Y-17337000D01*
X14186000Y-16017000D02*
X14236000Y-16067000D01*
X14236000Y-16017000D02*
X14186000Y-16067000D01*
X14300600Y-12268600D02*
X14350600Y-12318600D01*
X14350600Y-12268600D02*
X14300600Y-12318600D01*
X14351400Y-12725800D02*
X14401400Y-12775800D01*
X14401400Y-12725800D02*
X14351400Y-12775800D01*
X14453000Y-10973200D02*
X14503000Y-11023200D01*
X14503000Y-10973200D02*
X14453000Y-11023200D01*
X14552000Y-17610000D02*
X14602000Y-17660000D01*
X14602000Y-17610000D02*
X14552000Y-17660000D01*
X14819000Y-12702000D02*
X14869000Y-12752000D01*
X14869000Y-12702000D02*
X14819000Y-12752000D01*
X14894000Y-16231000D02*
X14944000Y-16281000D01*
X14944000Y-16231000D02*
X14894000Y-16281000D01*
X15577000Y-15832000D02*
X15627000Y-15882000D01*
X15627000Y-15832000D02*
X15577000Y-15882000D01*
X15626000Y-15277000D02*
X15676000Y-15327000D01*
X15676000Y-15277000D02*
X15626000Y-15327000D01*
X15681000Y-13695000D02*
X15731000Y-13745000D01*
X15731000Y-13695000D02*
X15681000Y-13745000D01*
D12*
X5033928Y-21118215D02*
X5033928Y-20818215D01*
X5105357Y-20818215D01*
X5148214Y-20832500D01*
X5176785Y-20861072D01*
X5191071Y-20889643D01*
X5205357Y-20946786D01*
X5205357Y-20989643D01*
X5191071Y-21046786D01*
X5176785Y-21075358D01*
X5148214Y-21103929D01*
X5105357Y-21118215D01*
X5033928Y-21118215D01*
X5333928Y-21118215D02*
X5333928Y-20918215D01*
X5333928Y-20975358D02*
X5348214Y-20946786D01*
X5362500Y-20932500D01*
X5391071Y-20918215D01*
X5419642Y-20918215D01*
X5519642Y-21118215D02*
X5519642Y-20918215D01*
X5519642Y-20818215D02*
X5505357Y-20832500D01*
X5519642Y-20846786D01*
X5533928Y-20832500D01*
X5519642Y-20818215D01*
X5519642Y-20846786D01*
X5705357Y-21118215D02*
X5676785Y-21103929D01*
X5662500Y-21075358D01*
X5662500Y-20818215D01*
X5862500Y-21118215D02*
X5833928Y-21103929D01*
X5819642Y-21075358D01*
X5819642Y-20818215D01*
X6205357Y-21118215D02*
X6205357Y-20818215D01*
X6305357Y-21032500D01*
X6405357Y-20818215D01*
X6405357Y-21118215D01*
X6676785Y-21118215D02*
X6676785Y-20961072D01*
X6662500Y-20932500D01*
X6633928Y-20918215D01*
X6576785Y-20918215D01*
X6548214Y-20932500D01*
X6676785Y-21103929D02*
X6648214Y-21118215D01*
X6576785Y-21118215D01*
X6548214Y-21103929D01*
X6533928Y-21075358D01*
X6533928Y-21046786D01*
X6548214Y-21018215D01*
X6576785Y-21003929D01*
X6648214Y-21003929D01*
X6676785Y-20989643D01*
X6819642Y-20918215D02*
X6819642Y-21218215D01*
X6819642Y-20932500D02*
X6848214Y-20918215D01*
X6905357Y-20918215D01*
X6933928Y-20932500D01*
X6948214Y-20946786D01*
X6962500Y-20975358D01*
X6962500Y-21061072D01*
X6948214Y-21089643D01*
X6933928Y-21103929D01*
X6905357Y-21118215D01*
X6848214Y-21118215D01*
X6819642Y-21103929D01*
X7091071Y-21089643D02*
X7105357Y-21103929D01*
X7091071Y-21118215D01*
X7076785Y-21103929D01*
X7091071Y-21089643D01*
X7091071Y-21118215D01*
X7091071Y-20932500D02*
X7105357Y-20946786D01*
X7091071Y-20961072D01*
X7076785Y-20946786D01*
X7091071Y-20932500D01*
X7091071Y-20961072D01*
X4697500Y-21587500D02*
X4747500Y-21637500D01*
X4747500Y-21587500D02*
X4697500Y-21637500D01*
X5091071Y-21448215D02*
X5119642Y-21448215D01*
X5148214Y-21462500D01*
X5162500Y-21476786D01*
X5176785Y-21505358D01*
X5191071Y-21562500D01*
X5191071Y-21633929D01*
X5176785Y-21691072D01*
X5162500Y-21719643D01*
X5148214Y-21733929D01*
X5119642Y-21748215D01*
X5091071Y-21748215D01*
X5062500Y-21733929D01*
X5048214Y-21719643D01*
X5033928Y-21691072D01*
X5019642Y-21633929D01*
X5019642Y-21562500D01*
X5033928Y-21505358D01*
X5048214Y-21476786D01*
X5062500Y-21462500D01*
X5091071Y-21448215D01*
X5319642Y-21719643D02*
X5333928Y-21733929D01*
X5319642Y-21748215D01*
X5305357Y-21733929D01*
X5319642Y-21719643D01*
X5319642Y-21748215D01*
X5605357Y-21448215D02*
X5462500Y-21448215D01*
X5448214Y-21591072D01*
X5462500Y-21576786D01*
X5491071Y-21562500D01*
X5562500Y-21562500D01*
X5591071Y-21576786D01*
X5605357Y-21591072D01*
X5619642Y-21619643D01*
X5619642Y-21691072D01*
X5605357Y-21719643D01*
X5591071Y-21733929D01*
X5562500Y-21748215D01*
X5491071Y-21748215D01*
X5462500Y-21733929D01*
X5448214Y-21719643D01*
X5805357Y-21448215D02*
X5833928Y-21448215D01*
X5862500Y-21462500D01*
X5876785Y-21476786D01*
X5891071Y-21505358D01*
X5905357Y-21562500D01*
X5905357Y-21633929D01*
X5891071Y-21691072D01*
X5876785Y-21719643D01*
X5862500Y-21733929D01*
X5833928Y-21748215D01*
X5805357Y-21748215D01*
X5776785Y-21733929D01*
X5762500Y-21719643D01*
X5748214Y-21691072D01*
X5733928Y-21633929D01*
X5733928Y-21562500D01*
X5748214Y-21505358D01*
X5762500Y-21476786D01*
X5776785Y-21462500D01*
X5805357Y-21448215D01*
X6033928Y-21748215D02*
X6033928Y-21548215D01*
X6033928Y-21576786D02*
X6048214Y-21562500D01*
X6076785Y-21548215D01*
X6119642Y-21548215D01*
X6148214Y-21562500D01*
X6162500Y-21591072D01*
X6162500Y-21748215D01*
X6162500Y-21591072D02*
X6176785Y-21562500D01*
X6205357Y-21548215D01*
X6248214Y-21548215D01*
X6276785Y-21562500D01*
X6291071Y-21591072D01*
X6291071Y-21748215D01*
X6433928Y-21748215D02*
X6433928Y-21548215D01*
X6433928Y-21576786D02*
X6448214Y-21562500D01*
X6476785Y-21548215D01*
X6519642Y-21548215D01*
X6548214Y-21562500D01*
X6562500Y-21591072D01*
X6562500Y-21748215D01*
X6562500Y-21591072D02*
X6576785Y-21562500D01*
X6605357Y-21548215D01*
X6648214Y-21548215D01*
X6676785Y-21562500D01*
X6691071Y-21591072D01*
X6691071Y-21748215D01*
X7276785Y-21433929D02*
X7019642Y-21819643D01*
X7662500Y-21448215D02*
X7691071Y-21448215D01*
X7719642Y-21462500D01*
X7733928Y-21476786D01*
X7748214Y-21505358D01*
X7762500Y-21562500D01*
X7762500Y-21633929D01*
X7748214Y-21691072D01*
X7733928Y-21719643D01*
X7719642Y-21733929D01*
X7691071Y-21748215D01*
X7662500Y-21748215D01*
X7633928Y-21733929D01*
X7619642Y-21719643D01*
X7605357Y-21691072D01*
X7591071Y-21633929D01*
X7591071Y-21562500D01*
X7605357Y-21505358D01*
X7619642Y-21476786D01*
X7633928Y-21462500D01*
X7662500Y-21448215D01*
X7891071Y-21719643D02*
X7905357Y-21733929D01*
X7891071Y-21748215D01*
X7876785Y-21733929D01*
X7891071Y-21719643D01*
X7891071Y-21748215D01*
X8091071Y-21448215D02*
X8119642Y-21448215D01*
X8148214Y-21462500D01*
X8162500Y-21476786D01*
X8176785Y-21505358D01*
X8191071Y-21562500D01*
X8191071Y-21633929D01*
X8176785Y-21691072D01*
X8162500Y-21719643D01*
X8148214Y-21733929D01*
X8119642Y-21748215D01*
X8091071Y-21748215D01*
X8062500Y-21733929D01*
X8048214Y-21719643D01*
X8033928Y-21691072D01*
X8019642Y-21633929D01*
X8019642Y-21562500D01*
X8033928Y-21505358D01*
X8048214Y-21476786D01*
X8062500Y-21462500D01*
X8091071Y-21448215D01*
X8305357Y-21476786D02*
X8319642Y-21462500D01*
X8348214Y-21448215D01*
X8419642Y-21448215D01*
X8448214Y-21462500D01*
X8462500Y-21476786D01*
X8476785Y-21505358D01*
X8476785Y-21533929D01*
X8462500Y-21576786D01*
X8291071Y-21748215D01*
X8476785Y-21748215D01*
X8662500Y-21448215D02*
X8691071Y-21448215D01*
X8719642Y-21462500D01*
X8733928Y-21476786D01*
X8748214Y-21505358D01*
X8762500Y-21562500D01*
X8762500Y-21633929D01*
X8748214Y-21691072D01*
X8733928Y-21719643D01*
X8719642Y-21733929D01*
X8691071Y-21748215D01*
X8662500Y-21748215D01*
X8633928Y-21733929D01*
X8619642Y-21719643D01*
X8605357Y-21691072D01*
X8591071Y-21633929D01*
X8591071Y-21562500D01*
X8605357Y-21505358D01*
X8619642Y-21476786D01*
X8633928Y-21462500D01*
X8662500Y-21448215D01*
X8876785Y-21448215D02*
X8876785Y-21505358D01*
X8991071Y-21448215D02*
X8991071Y-21505358D01*
X9433928Y-21862500D02*
X9419642Y-21848215D01*
X9391071Y-21805358D01*
X9376785Y-21776786D01*
X9362500Y-21733929D01*
X9348214Y-21662500D01*
X9348214Y-21605358D01*
X9362500Y-21533929D01*
X9376785Y-21491072D01*
X9391071Y-21462500D01*
X9419642Y-21419643D01*
X9433928Y-21405358D01*
X9676785Y-21448215D02*
X9619642Y-21448215D01*
X9591071Y-21462500D01*
X9576785Y-21476786D01*
X9548214Y-21519643D01*
X9533928Y-21576786D01*
X9533928Y-21691072D01*
X9548214Y-21719643D01*
X9562500Y-21733929D01*
X9591071Y-21748215D01*
X9648214Y-21748215D01*
X9676785Y-21733929D01*
X9691071Y-21719643D01*
X9705357Y-21691072D01*
X9705357Y-21619643D01*
X9691071Y-21591072D01*
X9676785Y-21576786D01*
X9648214Y-21562500D01*
X9591071Y-21562500D01*
X9562500Y-21576786D01*
X9548214Y-21591072D01*
X9533928Y-21619643D01*
X9962500Y-21448215D02*
X9905357Y-21448215D01*
X9876785Y-21462500D01*
X9862500Y-21476786D01*
X9833928Y-21519643D01*
X9819642Y-21576786D01*
X9819642Y-21691072D01*
X9833928Y-21719643D01*
X9848214Y-21733929D01*
X9876785Y-21748215D01*
X9933928Y-21748215D01*
X9962500Y-21733929D01*
X9976785Y-21719643D01*
X9991071Y-21691072D01*
X9991071Y-21619643D01*
X9976785Y-21591072D01*
X9962500Y-21576786D01*
X9933928Y-21562500D01*
X9876785Y-21562500D01*
X9848214Y-21576786D01*
X9833928Y-21591072D01*
X9819642Y-21619643D01*
X10348214Y-21748215D02*
X10348214Y-21448215D01*
X10476785Y-21748215D02*
X10476785Y-21591072D01*
X10462500Y-21562500D01*
X10433928Y-21548215D01*
X10391071Y-21548215D01*
X10362500Y-21562500D01*
X10348214Y-21576786D01*
X10662500Y-21748215D02*
X10633928Y-21733929D01*
X10619642Y-21719643D01*
X10605357Y-21691072D01*
X10605357Y-21605358D01*
X10619642Y-21576786D01*
X10633928Y-21562500D01*
X10662500Y-21548215D01*
X10705357Y-21548215D01*
X10733928Y-21562500D01*
X10748214Y-21576786D01*
X10762500Y-21605358D01*
X10762500Y-21691072D01*
X10748214Y-21719643D01*
X10733928Y-21733929D01*
X10705357Y-21748215D01*
X10662500Y-21748215D01*
X10933928Y-21748215D02*
X10905357Y-21733929D01*
X10891071Y-21705358D01*
X10891071Y-21448215D01*
X11162500Y-21733929D02*
X11133928Y-21748215D01*
X11076785Y-21748215D01*
X11048214Y-21733929D01*
X11033928Y-21705358D01*
X11033928Y-21591072D01*
X11048214Y-21562500D01*
X11076785Y-21548215D01*
X11133928Y-21548215D01*
X11162500Y-21562500D01*
X11176785Y-21591072D01*
X11176785Y-21619643D01*
X11033928Y-21648215D01*
X11291071Y-21733929D02*
X11319642Y-21748215D01*
X11376785Y-21748215D01*
X11405357Y-21733929D01*
X11419642Y-21705358D01*
X11419642Y-21691072D01*
X11405357Y-21662500D01*
X11376785Y-21648215D01*
X11333928Y-21648215D01*
X11305357Y-21633929D01*
X11291071Y-21605358D01*
X11291071Y-21591072D01*
X11305357Y-21562500D01*
X11333928Y-21548215D01*
X11376785Y-21548215D01*
X11405357Y-21562500D01*
X11519642Y-21862500D02*
X11533928Y-21848215D01*
X11562500Y-21805358D01*
X11576785Y-21776786D01*
X11591071Y-21733929D01*
X11605357Y-21662500D01*
X11605357Y-21605358D01*
X11591071Y-21533929D01*
X11576785Y-21491072D01*
X11562500Y-21462500D01*
X11533928Y-21419643D01*
X11519642Y-21405358D01*
M02*
