<?xml version='1.0' encoding='UTF-8' standalone='no'?>
<svg xmlns="http://www.w3.org/2000/svg" viewBox="0 0 576 432" xmlns:xlink="http://www.w3.org/1999/xlink" width="576pt" height="432pt">
 <title>gl2ps_renderer figure</title>
 <desc>
Creator: GL2PS 1.4.0, (C) 1999-2017 C. Geuzaine
For: Octave
CreationDate: Tue Feb 16 23:03:35 2021
</desc>
 <defs/>
 <polygon fill="#ffffff" points="0,0 576,0 576,432 0,432"/>
 <g>
  <polygon shape-rendering="crispEdges" fill="#ffffff" points="0,432 576,432 576,0 0,0"/>
  <clipPath id="cp00576432">
   <polygon points="0,432 576,432 576,0 0,0"/>
  </clipPath>
  <g clip-path="url(#cp00576432)">
   <polygon shape-rendering="crispEdges" fill="#ffffff" points="74.88,384.48 521.28,384.48 521.28,32.4 74.88,32.4"/>
   <polyline fill="none" stroke="#262626" points="74.88,384.48 74.88,380.015" stroke-linecap="butt" stroke-width="0.5" stroke-linejoin="miter"/>
   <polyline fill="none" stroke="#262626" points="149.28,384.48 149.28,380.015" stroke-linecap="butt" stroke-width="0.5" stroke-linejoin="miter"/>
   <polyline fill="none" stroke="#262626" points="223.68,384.48 223.68,380.015" stroke-linecap="butt" stroke-width="0.5" stroke-linejoin="miter"/>
   <polyline fill="none" stroke="#262626" points="298.08,384.48 298.08,380.015" stroke-linecap="butt" stroke-width="0.5" stroke-linejoin="miter"/>
   <polyline fill="none" stroke="#262626" points="372.48,384.48 372.48,380.015" stroke-linecap="butt" stroke-width="0.5" stroke-linejoin="miter"/>
   <polyline fill="none" stroke="#262626" points="446.88,384.48 446.88,380.015" stroke-linecap="butt" stroke-width="0.5" stroke-linejoin="miter"/>
   <polyline fill="none" stroke="#262626" points="521.28,384.48 521.28,380.015" stroke-linecap="butt" stroke-width="0.5" stroke-linejoin="miter"/>
   <text xml:space="preserve" transform="translate(67.38,399.982) rotate(-0,7.5,-8)" font-family="FreeSans" font-size="10" font-weight="normal" font-style="normal">
    <tspan fill="rgb(38,38,38)" y="-0" x="0 3 9 ">-60</tspan>
   </text>
   <text xml:space="preserve" transform="translate(141.78,399.982) rotate(-0,7.5,-8)" font-family="FreeSans" font-size="10" font-weight="normal" font-style="normal">
    <tspan fill="rgb(38,38,38)" y="-0" x="0 3 9 ">-40</tspan>
   </text>
   <text xml:space="preserve" transform="translate(216.18,399.982) rotate(-0,7.5,-8)" font-family="FreeSans" font-size="10" font-weight="normal" font-style="normal">
    <tspan fill="rgb(38,38,38)" y="-0" x="0 3 9 ">-20</tspan>
   </text>
   <text xml:space="preserve" transform="translate(295.08,399.982) rotate(-0,3,-8)" font-family="FreeSans" font-size="10" font-weight="normal" font-style="normal">
    <tspan fill="rgb(38,38,38)" y="-0" x="0 ">0</tspan>
   </text>
   <text xml:space="preserve" transform="translate(366.48,399.982) rotate(-0,6,-8)" font-family="FreeSans" font-size="10" font-weight="normal" font-style="normal">
    <tspan fill="rgb(38,38,38)" y="-0" x="0 6 ">20</tspan>
   </text>
   <text xml:space="preserve" transform="translate(440.88,399.982) rotate(-0,6,-8)" font-family="FreeSans" font-size="10" font-weight="normal" font-style="normal">
    <tspan fill="rgb(38,38,38)" y="-0" x="0 6 ">40</tspan>
   </text>
   <text xml:space="preserve" transform="translate(515.28,399.982) rotate(-0,6,-8)" font-family="FreeSans" font-size="10" font-weight="normal" font-style="normal">
    <tspan fill="rgb(38,38,38)" y="-0" x="0 6 ">60</tspan>
   </text>
   <polyline fill="none" stroke="#262626" points="74.88,384.48 79.348,384.48" stroke-linecap="butt" stroke-width="0.5" stroke-linejoin="miter"/>
   <polyline fill="none" stroke="#262626" points="74.88,325.8 79.348,325.8" stroke-linecap="butt" stroke-width="0.5" stroke-linejoin="miter"/>
   <polyline fill="none" stroke="#262626" points="74.88,267.12 79.348,267.12" stroke-linecap="butt" stroke-width="0.5" stroke-linejoin="miter"/>
   <polyline fill="none" stroke="#262626" points="74.88,208.44 79.348,208.44" stroke-linecap="butt" stroke-width="0.5" stroke-linejoin="miter"/>
   <polyline fill="none" stroke="#262626" points="74.88,149.76 79.348,149.76" stroke-linecap="butt" stroke-width="0.5" stroke-linejoin="miter"/>
   <polyline fill="none" stroke="#262626" points="74.88,91.08 79.348,91.08" stroke-linecap="butt" stroke-width="0.5" stroke-linejoin="miter"/>
   <polyline fill="none" stroke="#262626" points="74.88,32.4 79.348,32.4" stroke-linecap="butt" stroke-width="0.5" stroke-linejoin="miter"/>
   <text xml:space="preserve" transform="translate(54.8755,388.48) rotate(-0,15,-4)" font-family="FreeSans" font-size="10" font-weight="normal" font-style="normal">
    <tspan fill="rgb(38,38,38)" y="-0" x="0 3 9 ">-60</tspan>
   </text>
   <text xml:space="preserve" transform="translate(54.8755,329.8) rotate(-0,15,-4)" font-family="FreeSans" font-size="10" font-weight="normal" font-style="normal">
    <tspan fill="rgb(38,38,38)" y="-0" x="0 3 9 ">-40</tspan>
   </text>
   <text xml:space="preserve" transform="translate(54.8755,271.12) rotate(-0,15,-4)" font-family="FreeSans" font-size="10" font-weight="normal" font-style="normal">
    <tspan fill="rgb(38,38,38)" y="-0" x="0 3 9 ">-20</tspan>
   </text>
   <text xml:space="preserve" transform="translate(63.8755,212.44) rotate(-0,6,-4)" font-family="FreeSans" font-size="10" font-weight="normal" font-style="normal">
    <tspan fill="rgb(38,38,38)" y="-0" x="0 ">0</tspan>
   </text>
   <text xml:space="preserve" transform="translate(57.8755,153.76) rotate(-0,12,-4)" font-family="FreeSans" font-size="10" font-weight="normal" font-style="normal">
    <tspan fill="rgb(38,38,38)" y="-0" x="0 6 ">20</tspan>
   </text>
   <text xml:space="preserve" transform="translate(57.8755,95.08) rotate(-0,12,-4)" font-family="FreeSans" font-size="10" font-weight="normal" font-style="normal">
    <tspan fill="rgb(38,38,38)" y="-0" x="0 6 ">40</tspan>
   </text>
   <text xml:space="preserve" transform="translate(57.8755,36.4) rotate(-0,12,-4)" font-family="FreeSans" font-size="10" font-weight="normal" font-style="normal">
    <tspan fill="rgb(38,38,38)" y="-0" x="0 6 ">60</tspan>
   </text>
   <polyline fill="none" stroke="#262626" points="74.88,384.48 521.28,384.48" stroke-linecap="square" stroke-dasharray="16,0" stroke-width="0.5" stroke-linejoin="miter"/>
   <polyline fill="none" stroke="#262626" points="74.88,384.48 74.88,32.4" stroke-linecap="square" stroke-dasharray="16,0" stroke-width="0.5" stroke-linejoin="miter"/>
   <polyline fill="none" stroke="#ff0000" points="466.622,204.035 472.622,210.035" stroke-linecap="square" stroke-width="0.5" stroke-linejoin="miter"/>
   <polyline fill="none" stroke="#ff0000" points="466.622,210.035 472.622,204.035" stroke-linecap="square" stroke-width="0.5" stroke-linejoin="miter"/>
   <polyline fill="none" stroke="#ff0000" points="449.881,127.302 455.881,133.302" stroke-linecap="square" stroke-width="0.5" stroke-linejoin="miter"/>
   <polyline fill="none" stroke="#ff0000" points="449.881,133.302 455.881,127.302" stroke-linecap="square" stroke-width="0.5" stroke-linejoin="miter"/>
   <polyline fill="none" stroke="#ff0000" points="264.632,346.954 270.632,352.954" stroke-linecap="square" stroke-width="0.5" stroke-linejoin="miter"/>
   <polyline fill="none" stroke="#ff0000" points="264.632,352.954 270.632,346.954" stroke-linecap="square" stroke-width="0.5" stroke-linejoin="miter"/>
   <polyline fill="none" stroke="#ff0000" points="416.732,235.738 422.732,241.738" stroke-linecap="square" stroke-width="0.5" stroke-linejoin="miter"/>
   <polyline fill="none" stroke="#ff0000" points="416.732,241.738 422.732,235.738" stroke-linecap="square" stroke-width="0.5" stroke-linejoin="miter"/>
   <polyline fill="none" stroke="#ff0000" points="335.172,127.656 341.172,133.656" stroke-linecap="square" stroke-width="0.5" stroke-linejoin="miter"/>
   <polyline fill="none" stroke="#ff0000" points="335.172,133.656 341.172,127.656" stroke-linecap="square" stroke-width="0.5" stroke-linejoin="miter"/>
   <polyline fill="none" stroke="#ff0000" points="218.283,100.737 224.283,106.737" stroke-linecap="square" stroke-width="0.5" stroke-linejoin="miter"/>
   <polyline fill="none" stroke="#ff0000" points="218.283,106.737 224.283,100.737" stroke-linecap="square" stroke-width="0.5" stroke-linejoin="miter"/>
   <polyline fill="none" stroke="#ff0000" points="129.819,202.283 135.819,208.283" stroke-linecap="square" stroke-width="0.5" stroke-linejoin="miter"/>
   <polyline fill="none" stroke="#ff0000" points="129.819,208.283 135.819,202.283" stroke-linecap="square" stroke-width="0.5" stroke-linejoin="miter"/>
   <polyline fill="none" stroke="#ff0000" points="240.239,313.483 246.239,319.483" stroke-linecap="square" stroke-width="0.5" stroke-linejoin="miter"/>
   <polyline fill="none" stroke="#ff0000" points="240.239,319.483 246.239,313.483" stroke-linecap="square" stroke-width="0.5" stroke-linejoin="miter"/>
   <polyline fill="none" stroke="#ff0000" points="357.381,343.388 363.381,349.388" stroke-linecap="square" stroke-width="0.5" stroke-linejoin="miter"/>
   <polyline fill="none" stroke="#ff0000" points="357.381,349.388 363.381,343.388" stroke-linecap="square" stroke-width="0.5" stroke-linejoin="miter"/>
   <polyline fill="none" stroke="#ff0000" points="463.665,263.169 469.665,269.169" stroke-linecap="square" stroke-width="0.5" stroke-linejoin="miter"/>
   <polyline fill="none" stroke="#ff0000" points="463.665,269.169 469.665,263.169" stroke-linecap="square" stroke-width="0.5" stroke-linejoin="miter"/>
   <polyline fill="none" stroke="#ff0000" points="122.198,256.802 128.198,262.802" stroke-linecap="square" stroke-width="0.5" stroke-linejoin="miter"/>
   <polyline fill="none" stroke="#ff0000" points="122.198,262.802 128.198,256.802" stroke-linecap="square" stroke-width="0.5" stroke-linejoin="miter"/>
   <polyline fill="none" stroke="#ff0000" points="374.082,72.7477 380.082,78.7477" stroke-linecap="square" stroke-width="0.5" stroke-linejoin="miter"/>
   <polyline fill="none" stroke="#ff0000" points="374.082,78.7477 380.082,72.7477" stroke-linecap="square" stroke-width="0.5" stroke-linejoin="miter"/>
   <polyline fill="none" stroke="#ff0000" points="309.184,75.2233 315.184,81.2233" stroke-linecap="square" stroke-width="0.5" stroke-linejoin="miter"/>
   <polyline fill="none" stroke="#ff0000" points="309.184,81.2233 315.184,75.2233" stroke-linecap="square" stroke-width="0.5" stroke-linejoin="miter"/>
   <polyline fill="none" stroke="#ff0000" points="158.356,132.108 164.356,138.108" stroke-linecap="square" stroke-width="0.5" stroke-linejoin="miter"/>
   <polyline fill="none" stroke="#ff0000" points="158.356,138.108 164.356,132.108" stroke-linecap="square" stroke-width="0.5" stroke-linejoin="miter"/>
   <polyline fill="none" stroke="#ff0000" points="328.052,323.057 334.052,329.057" stroke-linecap="square" stroke-width="0.5" stroke-linejoin="miter"/>
   <polyline fill="none" stroke="#ff0000" points="328.052,329.057 334.052,323.057" stroke-linecap="square" stroke-width="0.5" stroke-linejoin="miter"/>
   <polyline fill="none" stroke="#ff0000" points="175.835,316.395 181.835,322.395" stroke-linecap="square" stroke-width="0.5" stroke-linejoin="miter"/>
   <polyline fill="none" stroke="#ff0000" points="175.835,322.395 181.835,316.395" stroke-linecap="square" stroke-width="0.5" stroke-linejoin="miter"/>
   <polyline fill="none" stroke="#ff0000" points="171.083,263.235 177.083,269.235" stroke-linecap="square" stroke-width="0.5" stroke-linejoin="miter"/>
   <polyline fill="none" stroke="#ff0000" points="171.083,269.235 177.083,263.235" stroke-linecap="square" stroke-width="0.5" stroke-linejoin="miter"/>
   <polyline fill="none" stroke="#ff0000" points="188.203,197.628 194.203,203.628" stroke-linecap="square" stroke-width="0.5" stroke-linejoin="miter"/>
   <polyline fill="none" stroke="#ff0000" points="188.203,203.628 194.203,197.628" stroke-linecap="square" stroke-width="0.5" stroke-linejoin="miter"/>
   <polyline fill="none" stroke="#ff0000" points="420.403,162.826 426.403,168.826" stroke-linecap="square" stroke-width="0.5" stroke-linejoin="miter"/>
   <polyline fill="none" stroke="#ff0000" points="420.403,168.826 426.403,162.826" stroke-linecap="square" stroke-width="0.5" stroke-linejoin="miter"/>
   <polyline fill="none" stroke="#ff0000" points="343.878,274.144 349.878,280.144" stroke-linecap="square" stroke-width="0.5" stroke-linejoin="miter"/>
   <polyline fill="none" stroke="#ff0000" points="343.878,280.144 349.878,274.144" stroke-linecap="square" stroke-width="0.5" stroke-linejoin="miter"/>
   <polyline fill="none" stroke="#ff0000" points="413.45,304.305 419.45,310.305" stroke-linecap="square" stroke-width="0.5" stroke-linejoin="miter"/>
   <polyline fill="none" stroke="#ff0000" points="413.45,310.305 419.45,304.305" stroke-linecap="square" stroke-width="0.5" stroke-linejoin="miter"/>
   <polyline fill="none" stroke="#ff0000" points="245.021,64.4722 251.021,70.4722" stroke-linecap="square" stroke-width="0.5" stroke-linejoin="miter"/>
   <polyline fill="none" stroke="#ff0000" points="245.021,70.4722 251.021,64.4722" stroke-linecap="square" stroke-width="0.5" stroke-linejoin="miter"/>
   <polyline fill="none" stroke="#ff0000" points="390.138,96.2441 396.138,102.244" stroke-linecap="square" stroke-width="0.5" stroke-linejoin="miter"/>
   <polyline fill="none" stroke="#ff0000" points="390.138,102.244 396.138,96.2441" stroke-linecap="square" stroke-width="0.5" stroke-linejoin="miter"/>
   <polyline fill="none" stroke="#ff0000" points="250.565,155.072 256.565,161.072" stroke-linecap="square" stroke-width="0.5" stroke-linejoin="miter"/>
   <polyline fill="none" stroke="#ff0000" points="250.565,161.072 256.565,155.072" stroke-linecap="square" stroke-width="0.5" stroke-linejoin="miter"/>
   <polyline fill="none" stroke="#ff0000" points="255.969,251.132 261.969,257.132" stroke-linecap="square" stroke-width="0.5" stroke-linejoin="miter"/>
   <polyline fill="none" stroke="#ff0000" points="255.969,257.132 261.969,251.132" stroke-linecap="square" stroke-width="0.5" stroke-linejoin="miter"/>
   <polyline fill="none" stroke="#ff0000" points="344.087,197.545 350.087,203.545" stroke-linecap="square" stroke-width="0.5" stroke-linejoin="miter"/>
   <polyline fill="none" stroke="#ff0000" points="344.087,203.545 350.087,197.545" stroke-linecap="square" stroke-width="0.5" stroke-linejoin="miter"/>
   <polyline fill="none" stroke="#0071bc" points="484.08,208.44 483.706,199.136 482.584,189.869 480.719,180.677 478.118,171.597 474.793,162.665 470.756,153.917 466.024,145.389 460.616,137.115 454.553,129.128 447.86,121.46 440.564,114.143 432.695,107.205 424.283,100.675 415.363,94.5793 405.971,88.9417 396.144,83.7853 385.922,79.1308 375.347,74.997 364.461,71.4005 353.307,68.3558 341.931,65.8752 330.379,63.9687 318.696,62.6439 306.93,61.9062 295.129,61.7585 283.34,62.2014 271.609,63.2332 259.986,64.8497 248.516,67.0444 237.245,69.8084 226.22,73.1306 215.484,76.9977 205.08,81.3941 195.051,86.302 185.437,91.7017 176.276,97.5715 167.606,103.888 159.461,110.625 151.874,117.756 144.876,125.252 138.495,133.084 132.757,141.218 127.684,149.624 123.297,158.266 119.614,167.11 116.65,176.12 114.416,185.261 112.922,194.495 112.174,203.786 112.174,213.094 112.922,222.385 114.416,231.619 116.65,240.76 119.614,249.77 123.297,258.614 127.684,267.257 132.757,275.662 138.495,283.796 144.876,291.628 151.874,299.124 159.461,306.255 167.606,312.992 176.276,319.308 185.437,325.178 195.051,330.578 205.08,335.486 215.484,339.882 226.22,343.749 237.245,347.072 248.516,349.836 259.986,352.03 271.609,353.647 283.34,354.679 295.129,355.122 306.93,354.974 318.696,354.236 330.379,352.911 341.931,351.005 353.307,348.524 364.461,345.479 375.347,341.883 385.922,337.749 396.144,333.095 405.971,327.938 415.363,322.301 424.283,316.205 432.695,309.675 440.564,302.737 447.86,295.42 454.553,287.752 460.616,279.765 466.024,271.491 470.756,262.963 474.793,254.215 478.118,245.283 480.719,236.203 482.584,227.011 483.706,217.744 484.08,208.44" stroke-linecap="butt" stroke-width="0.5" stroke-linejoin="round"/>
  </g>
 </g>
</svg>
